Coordinates
version=1
nRows=18
nColumns=63
inDegrees=yes

Units are S.I. units (second, meters, Newtons, ...)
If the header above contains a line with 'inDegrees', this indicates whether rotational values are in degrees (yes) or radians (no).

endheader
time	pelvis_tilt	pelvis_list	pelvis_rotation	pelvis_tx	pelvis_ty	pelvis_tz	hip_flexion_r	hip_adduction_r	hip_rotation_r	knee_angle_r	knee_angle_r_beta	ankle_angle_r	subtalar_angle_r	mtp_angle_r	hip_flexion_l	hip_adduction_l	hip_rotation_l	knee_angle_l	knee_angle_l_beta	ankle_angle_l	subtalar_angle_l	mtp_angle_l	L5_S1_Flex_Ext	L5_S1_Lat_Bending	L5_S1_axial_rotation	L4_L5_Flex_Ext	L4_L5_Lat_Bending	L4_L5_axial_rotation	L3_L4_Flex_Ext	L3_L4_Lat_Bending	L3_L4_axial_rotation	L2_L3_Flex_Ext	L2_L3_Lat_Bending	L2_L3_axial_rotation	L1_L2_Flex_Ext	L1_L2_Lat_Bending	L1_L2_axial_rotation	L1_T12_Flex_Ext	L1_T12_Lat_Bending	L1_T12_axial_rotation	Abs_r3	Abs_r2	Abs_r1	Abs_t1	Abs_t2	neck_flexion	neck_bending	neck_rotation	arm_flex_r	arm_add_r	arm_rot_r	elbow_flex_r	pro_sup_r	wrist_flex_r	wrist_dev_r	arm_flex_l	arm_add_l	arm_rot_l	elbow_flex_l	pro_sup_l	wrist_flex_l	wrist_dev_l
5.525424	-0.627553	-13.570230	72.441667	0.184485	0.977511	0.305416	4.401770	1.391068	12.990455	11.225084	0.195915	31.913247	6.059382	0.000000	5.433064	-1.414153	-11.286685	16.846014	0.294018	31.353844	-14.287157	0.000000	0.136675	0.737976	-1.074423	0.253819	0.981508	-1.141574	0.224543	1.794315	-1.141574	0.156206	1.794315	-0.940120	0.126916	1.504881	-0.872969	0.078096	1.143125	-0.805817	0.976255	8.348133	-5.975618	0.000000	0.000000	10.726789	4.078678	14.513456	4.793884	-17.919084	98.259074	12.243465	6.410697	-4.872179	-5.554934	259.913468	-138.574622	248.502594	90.289626	64.887405	-1.330036	7.732844
5.542373	-0.697575	-13.459060	72.561112	0.186306	0.977859	0.305289	4.125915	1.382386	13.053071	10.926737	0.190708	31.719743	5.845553	0.000000	5.313181	-1.425772	-11.373642	16.856799	0.294207	31.094613	-14.311452	0.000000	0.140319	0.686056	-1.175463	0.260586	0.912454	-1.248929	0.230530	1.668075	-1.248929	0.160370	1.668075	-1.028530	0.130300	1.399004	-0.955064	0.080178	1.062700	-0.881597	1.002282	7.760798	-6.537573	0.000000	0.000000	10.541853	4.519477	13.645037	4.905439	-17.466537	97.033392	12.450829	6.787902	-4.604842	-5.619676	259.635141	-138.804926	248.731533	90.265490	63.829299	-3.492632	7.307414
5.559322	-0.679609	-13.377196	72.809248	0.187878	0.978201	0.305149	3.895036	1.455343	12.971006	10.692356	0.186617	31.536308	5.652008	0.000000	5.224928	-1.516784	-11.327465	16.875884	0.294540	30.886952	-14.339188	0.000000	0.142938	0.648033	-1.286960	0.265450	0.861884	-1.367395	0.234833	1.575627	-1.367395	0.163364	1.575627	-1.126090	0.132732	1.321469	-1.045655	0.081675	1.003803	-0.965220	1.020992	7.330677	-7.157686	0.000000	0.000000	10.392724	4.787432	12.718505	4.932871	-17.079882	95.842432	12.583317	7.104410	-4.314774	-5.819608	259.278530	-139.086233	248.884273	90.190654	62.470870	-5.446451	6.907261
5.576271	-0.571192	-13.346676	73.150690	0.189221	0.978523	0.305029	3.739626	1.623201	12.788427	10.533657	0.183847	31.359219	5.470234	0.000000	5.179275	-1.698311	-11.181494	16.884198	0.294685	30.743646	-14.347466	0.000000	0.146862	0.626647	-1.395750	0.272738	0.833440	-1.482985	0.241280	1.523629	-1.482985	0.167849	1.523629	-1.221281	0.136376	1.277858	-1.134047	0.083917	0.970676	-1.046813	1.049024	7.088753	-7.762744	0.000000	0.000000	10.298983	4.875647	11.782070	4.847394	-16.770747	94.451525	12.645053	7.400517	-4.047892	-6.080746	258.893670	-139.482389	248.970746	89.979982	62.025574	-6.919951	6.133859
5.593220	-0.391296	-13.363856	73.523278	0.190406	0.978791	0.305024	3.677745	1.872539	12.541819	10.478346	0.182882	31.214893	5.343201	0.000000	5.188690	-1.957098	-10.952016	16.916892	0.295255	30.662371	-14.390416	0.000000	0.150503	0.617641	-1.481487	0.279500	0.821463	-1.574080	0.247262	1.501733	-1.574080	0.172010	1.501733	-1.296301	0.139758	1.259494	-1.203708	0.085998	0.956726	-1.111115	1.075031	6.986883	-8.239586	0.000000	0.000000	10.285049	4.838888	10.647743	4.655255	-16.510609	93.100992	12.597995	7.678020	-3.806628	-6.363294	258.601661	-140.087581	249.126830	89.641674	62.051746	-7.994452	5.318718
5.610169	-0.151282	-13.426294	73.958073	0.191338	0.979022	0.305122	3.694975	2.178054	12.189752	10.495024	0.183173	31.093575	5.311731	0.000000	5.252245	-2.273711	-10.628882	16.957823	0.295970	30.613608	-14.443340	0.000000	0.154156	0.622085	-1.556561	0.286284	0.827373	-1.653846	0.253263	1.512537	-1.653846	0.176185	1.512537	-1.361991	0.143150	1.268556	-1.264706	0.088085	0.963610	-1.167421	1.101123	7.037150	-8.657127	0.000000	0.000000	10.343404	4.608255	9.382513	4.359295	-16.335715	91.264016	12.547565	8.127756	-3.609687	-6.674950	258.299067	-140.885062	249.173055	89.172822	63.358532	-8.722890	4.294820
5.627119	0.134051	-13.521692	74.353530	0.192155	0.979204	0.305419	3.789322	2.542833	11.888012	10.597759	0.184966	30.984990	5.288027	0.000000	5.346611	-2.643967	-10.310186	17.007022	0.296829	30.609061	-14.500355	0.000000	0.155654	0.637239	-1.599176	0.289064	0.847528	-1.699124	0.255723	1.549383	-1.699124	0.177897	1.549383	-1.399279	0.144540	1.299457	-1.299330	0.088941	0.987083	-1.199382	1.111819	7.208573	-8.894136	0.000000	0.000000	10.460371	4.225995	7.965231	3.991912	-16.196163	89.507931	12.393223	8.533661	-3.436466	-7.088240	258.050792	-141.929003	249.174525	88.526415	65.509520	-9.071518	3.308097
5.644068	0.435885	-13.636134	74.667991	0.192860	0.979340	0.305915	3.950018	2.931769	11.651240	10.779870	0.188144	30.900380	5.292742	0.000000	5.454961	-3.033582	-10.034356	17.054058	0.297649	30.640732	-14.559343	0.000000	0.154704	0.661466	-1.615700	0.287301	0.879750	-1.716682	0.254163	1.608288	-1.716682	0.176811	1.608288	-1.413738	0.143658	1.348861	-1.312757	0.088398	1.024611	-1.211775	1.105035	7.482635	-8.986041	0.000000	0.000000	10.609478	3.690308	6.530403	3.603021	-16.065356	87.752056	12.110447	8.858474	-3.180884	-7.612652	257.794459	-143.137714	249.025298	87.753896	68.353466	-9.073924	2.645812
5.661017	0.735583	-13.766967	74.863494	0.193498	0.979410	0.306671	4.179941	3.330729	11.510545	11.038764	0.192663	30.839156	5.312296	0.000000	5.587168	-3.430787	-9.837235	17.118561	0.298775	30.726541	-14.614980	0.000000	0.150620	0.692646	-1.608780	0.279717	0.921219	-1.709329	0.247454	1.684099	-1.709329	0.172144	1.684099	-1.407683	0.139866	1.412444	-1.307134	0.086064	1.072909	-1.206585	1.075866	7.835350	-8.947552	0.000000	0.000000	10.791932	3.042936	5.190080	3.226998	-15.910598	86.746502	11.580899	8.982652	-2.899650	-8.243700	257.574055	-144.441441	248.788330	86.869578	71.515114	-8.836446	2.384338
5.677966	1.012734	-13.904744	74.924840	0.194084	0.979407	0.307675	4.463770	3.715700	11.468910	11.355786	0.198196	30.810384	5.342159	0.000000	5.734317	-3.811726	-9.729889	17.191376	0.300046	30.863696	-14.672081	0.000000	0.142800	0.728092	-1.588921	0.265194	0.968362	-1.688229	0.234606	1.770282	-1.688229	0.163206	1.770282	-1.390306	0.132604	1.484725	-1.290999	0.081596	1.127814	-1.191691	1.020005	8.236320	-8.837104	0.000000	0.000000	10.998810	2.324979	4.040803	2.914013	-15.744044	86.713877	10.849859	8.914927	-2.689203	-8.910718	257.412196	-145.732477	248.519680	85.934420	74.446958	-8.462066	2.585305
5.694915	1.249395	-14.051558	74.843929	0.194623	0.979321	0.308927	4.797486	4.067096	11.510289	11.707603	0.204336	30.809414	5.404412	0.000000	5.905718	-4.159306	-9.706144	17.275677	0.301517	31.052458	-14.739639	0.000000	0.131322	0.765266	-1.565082	0.243879	1.017804	-1.662900	0.215749	1.860667	-1.662900	0.150088	1.860667	-1.369447	0.121946	1.560530	-1.271629	0.075038	1.185397	-1.173812	0.938022	8.656840	-8.704518	0.000000	0.000000	11.236620	1.592006	3.142889	2.709786	-15.585471	87.756909	9.988518	8.706738	-2.644848	-9.550481	257.389439	-146.910479	248.399820	85.016507	76.404267	-8.105197	3.113977
5.711864	1.433719	-14.217755	74.618903	0.195116	0.979145	0.310363	5.174618	4.374058	11.633960	12.059702	0.210482	30.837660	5.506786	0.000000	6.111092	-4.463503	-9.769841	17.367570	0.303121	31.273167	-14.829714	0.000000	0.117481	0.803676	-1.549283	0.218174	1.068888	-1.646114	0.193009	1.954057	-1.646114	0.134269	1.954057	-1.355623	0.109093	1.638855	-1.258793	0.067129	1.244893	-1.161963	0.839153	9.091338	-8.616650	0.000000	0.000000	11.496441	0.949906	2.655018	2.667704	-15.455336	89.979005	9.045402	8.339408	-2.753938	-10.163602	257.431770	-147.866515	248.335993	84.220773	77.522604	-7.675099	4.003187
5.728814	1.542228	-14.387873	74.279267	0.195583	0.978898	0.311935	5.570135	4.607275	11.804977	12.388498	0.216220	30.895182	5.661990	0.000000	6.333098	-4.694042	-9.890168	17.449844	0.304557	31.491592	-14.940779	0.000000	0.100596	0.837668	-1.544068	0.186818	1.114098	-1.640573	0.165270	2.036706	-1.640573	0.114972	2.036706	-1.351060	0.093414	1.708173	-1.254556	0.057481	1.297548	-1.158051	0.718551	9.475868	-8.587645	0.000000	0.000000	11.794875	0.428192	2.465601	2.777853	-15.335867	93.207250	8.065003	7.789754	-3.042608	-10.619883	257.687708	-148.603078	248.612813	83.553086	77.569312	-7.255649	5.009036
5.745763	1.587010	-14.582209	73.811405	0.196048	0.978591	0.313604	5.989473	4.781692	12.014055	12.669184	0.221119	30.966985	5.925337	0.000000	6.587168	-4.873508	-10.114545	17.531804	0.305988	31.675336	-15.075577	0.000000	0.082764	0.869631	-1.551443	0.153702	1.156610	-1.648409	0.135973	2.114421	-1.648409	0.094591	2.114421	-1.357513	0.076855	1.773352	-1.260548	0.047291	1.347059	-1.163583	0.591177	9.837442	-8.628663	0.000000	0.000000	12.135316	0.086959	2.666091	3.045220	-15.250602	97.308585	7.091414	7.073745	-3.454979	-10.990879	258.075237	-149.082423	249.144363	83.059812	76.630936	-6.688449	6.197978
5.762712	1.543755	-14.772687	73.246802	0.196557	0.978230	0.315336	6.400636	4.876940	12.303912	12.888080	0.224939	31.059449	6.189043	0.000000	6.848039	-4.968996	-10.402936	17.608769	0.307331	31.812995	-15.243865	0.000000	0.063319	0.892935	-1.566615	0.117591	1.187604	-1.664528	0.104028	2.171083	-1.664528	0.072368	2.171083	-1.370788	0.058798	1.820874	-1.272874	0.036181	1.383157	-1.174961	0.452285	10.101062	-8.713040	0.000000	0.000000	12.516681	-0.037698	3.148057	3.364387	-15.145759	101.631588	6.104828	6.369171	-3.926662	-11.264401	258.702660	-149.377450	250.163862	82.668549	75.117273	-6.205244	7.159230
5.779661	1.429933	-14.956879	72.616368	0.197082	0.977842	0.317100	6.792563	4.900703	12.607179	13.035643	0.227515	31.173314	6.523399	0.000000	7.111438	-4.996888	-10.766818	17.688709	0.308726	31.877516	-15.432834	0.000000	0.042779	0.909744	-1.596563	0.079445	1.209960	-1.696348	0.070281	2.211952	-1.696348	0.048892	2.211952	-1.396992	0.039724	1.855150	-1.297207	0.024444	1.409194	-1.197422	0.305565	10.291207	-8.879603	0.000000	0.000000	12.892190	0.105149	3.987550	3.741932	-15.024239	106.204005	5.121425	5.639850	-4.434733	-11.511503	259.446848	-149.482488	251.510657	82.377337	73.095707	-5.794036	8.009309
5.796610	1.253703	-15.123310	71.902698	0.197653	0.977459	0.318923	7.159413	4.864149	12.949975	13.116281	0.228922	31.305320	6.902798	0.000000	7.358791	-4.967539	-11.265902	17.766641	0.310086	31.866458	-15.621810	0.000000	0.020691	0.920572	-1.632152	0.038426	1.224361	-1.734161	0.033994	2.238280	-1.734161	0.023648	2.238280	-1.428133	0.019214	1.877231	-1.326123	0.011823	1.425967	-1.224114	0.147796	10.413699	-9.077539	0.000000	0.000000	13.226922	0.467324	5.172060	4.142526	-14.883221	110.820310	4.156294	4.890582	-4.951682	-11.832317	260.220233	-149.446723	253.053073	82.108790	70.677577	-5.408257	8.712397
5.813559	1.032016	-15.258745	71.120969	0.198264	0.977115	0.320770	7.493595	4.781998	13.347144	13.149616	0.229504	31.448361	7.293636	0.000000	7.571659	-4.893799	-11.899985	17.845365	0.311460	31.782395	-15.786650	0.000000	-0.003147	0.926966	-1.669033	-0.005845	1.232865	-1.773348	-0.005170	2.253826	-1.773348	-0.003597	2.253826	-1.460404	-0.002922	1.890270	-1.356090	-0.001798	1.435871	-1.251775	-0.022480	10.486027	-9.282662	0.000000	0.000000	13.496385	1.010193	6.665836	4.538003	-14.733395	115.322248	3.224523	4.153612	-5.451731	-12.246203	260.938582	-149.320933	254.671502	81.793022	67.963549	-5.071184	9.229704
